<svg width="21" height="20" viewBox="0 0 21 20" fill="none" xmlns="http://www.w3.org/2000/svg">
<path d="M10.4997 19.8763L8.98926 18.5221C7.23579 16.9423 5.78613 15.5794 4.6403 14.4336C3.49447 13.2878 2.58301 12.2635 1.90592 11.3607C1.22884 10.4405 0.751411 9.59852 0.473633 8.83464C0.213216 8.07075 0.0830078 7.2895 0.0830078 6.49089C0.0830078 4.85894 0.629883 3.49609 1.72363 2.40234C2.81738 1.30859 4.18023 0.761719 5.81218 0.761719C6.71495 0.761719 7.57433 0.952691 8.3903 1.33464C9.20627 1.71658 9.9094 2.25477 10.4997 2.94922C11.09 2.25477 11.7931 1.71658 12.609 1.33464C13.425 0.952691 14.2844 0.761719 15.1872 0.761719C16.8191 0.761719 18.182 1.30859 19.2757 2.40234C20.3695 3.49609 20.9163 4.85894 20.9163 6.49089C20.9163 7.2895 20.7775 8.07075 20.4997 8.83464C20.2393 9.59852 19.7705 10.4405 19.0934 11.3607C18.4163 12.2635 17.5049 13.2878 16.3591 14.4336C15.2132 15.5794 13.7636 16.9423 12.0101 18.5221L10.4997 19.8763ZM10.4997 17.0638C12.1663 15.5707 13.5379 14.2947 14.6143 13.2357C15.6906 12.1593 16.5413 11.2305 17.1663 10.4492C17.7913 9.65061 18.2254 8.94748 18.4684 8.33984C18.7115 7.71485 18.833 7.09853 18.833 6.49089C18.833 5.44922 18.4858 4.58116 17.7913 3.88672C17.0969 3.19228 16.2288 2.84505 15.1872 2.84505C14.3712 2.84505 13.616 3.07943 12.9215 3.54818C12.2271 3.99957 11.7497 4.58116 11.4893 5.29297H9.51009C9.24968 4.58116 8.77224 3.99957 8.0778 3.54818C7.38336 3.07943 6.62815 2.84505 5.81218 2.84505C4.77051 2.84505 3.90245 3.19228 3.20801 3.88672C2.51356 4.58116 2.16634 5.44922 2.16634 6.49089C2.16634 7.09853 2.28787 7.71485 2.53092 8.33984C2.77398 8.94748 3.20801 9.65061 3.83301 10.4492C4.45801 11.2305 5.3087 12.1593 6.38509 13.2357C7.46148 14.2947 8.83301 15.5707 10.4997 17.0638Z" fill="#79747E"/>
</svg>
