<svg width="21" height="20" viewBox="0 0 21 20" fill="none" xmlns="http://www.w3.org/2000/svg">
<path d="M10.5788 19.8763L9.06836 18.5221C7.31489 16.9423 5.86523 15.5794 4.7194 14.4336C3.57357 13.2878 2.66211 12.2635 1.98503 11.3607C1.30794 10.4405 0.830512 9.59852 0.552734 8.83464C0.292318 8.07075 0.162109 7.2895 0.162109 6.49089C0.162109 4.85894 0.708985 3.49609 1.80273 2.40234C2.89648 1.30859 4.25933 0.761719 5.89128 0.761719C6.79405 0.761719 7.65343 0.952691 8.4694 1.33464C9.28537 1.71658 9.9885 2.25477 10.5788 2.94922C11.1691 2.25477 11.8722 1.71658 12.6882 1.33464C13.5041 0.952691 14.3635 0.761719 15.2663 0.761719C16.8982 0.761719 18.2611 1.30859 19.3548 2.40234C20.4486 3.49609 20.9954 4.85894 20.9954 6.49089C20.9954 7.2895 20.8566 8.07075 20.5788 8.83464C20.3184 9.59852 19.8496 10.4405 19.1725 11.3607C18.4954 12.2635 17.584 13.2878 16.4382 14.4336C15.2923 15.5794 13.8427 16.9423 12.0892 18.5221L10.5788 19.8763ZM10.5788 17.0638C12.2454 15.5707 13.617 14.2947 14.6934 13.2357C15.7697 12.1593 16.6204 11.2305 17.2454 10.4492C17.8704 9.65061 18.3045 8.94748 18.5475 8.33984C18.7906 7.71485 18.9121 7.09853 18.9121 6.49089C18.9121 5.44922 18.5649 4.58116 17.8704 3.88672C17.176 3.19228 16.3079 2.84505 15.2663 2.84505C14.4503 2.84505 13.6951 3.07943 13.0007 3.54818C12.3062 3.99957 11.8288 4.58116 11.5684 5.29297H9.58919C9.32878 4.58116 8.85135 3.99957 8.1569 3.54818C7.46246 3.07943 6.70725 2.84505 5.89128 2.84505C4.84961 2.84505 3.98155 3.19228 3.28711 3.88672C2.59266 4.58116 2.24544 5.44922 2.24544 6.49089C2.24544 7.09853 2.36697 7.71485 2.61003 8.33984C2.85308 8.94748 3.28711 9.65061 3.91211 10.4492C4.53711 11.2305 5.3878 12.1593 6.46419 13.2357C7.54058 14.2947 8.91211 15.5707 10.5788 17.0638Z" fill="#B3261E"/>
</svg>
